<?xml version="1.0" standalone="no"?>
<!DOCTYPE svg PUBLIC "-//W3C//DTD SVG 20010904//EN"
 "http://www.w3.org/TR/2001/REC-SVG-20010904/DTD/svg10.dtd">
<svg version="1.0" xmlns="http://www.w3.org/2000/svg"
 width="500.000000pt" height="500.000000pt" viewBox="0 0 500.000000 500.000000"
 preserveAspectRatio="xMidYMid meet">

<g transform="translate(0.000000,500.000000) scale(0.100000,-0.100000)"
fill="#000000" stroke="none">
<path d="M1077 3991 c-38 -118 -15 -439 47 -651 56 -191 206 -507 284 -599 58
-68 172 -153 280 -210 94 -48 95 -48 139 26 34 58 63 154 63 209 0 64 -42 164
-103 247 -30 41 -130 150 -223 243 -235 237 -298 315 -369 453 -43 86 -82 213
-97 316 -2 12 -10 0 -21 -34z"/>
<path d="M3902 3984 c-5 -11 -17 -50 -26 -89 -24 -97 -104 -257 -178 -356 -34
-45 -150 -172 -257 -281 -210 -214 -247 -259 -293 -356 -54 -112 -45 -224 28
-348 41 -71 43 -71 136 -22 199 103 295 202 401 413 124 249 169 380 207 605
34 201 21 509 -18 434z"/>
<path d="M2400 1541 c-40 -13 -110 -51 -110 -59 0 -4 18 -48 40 -97 22 -50 63
-162 91 -250 29 -88 53 -161 53 -162 1 -1 13 1 28 4 25 5 30 16 66 127 39 119
85 241 123 323 10 23 19 47 19 53 0 6 -26 23 -57 38 -46 20 -76 27 -143 29
-47 1 -96 -1 -110 -6z"/>
</g>
</svg>
