{
	"asset":{
		"generator":"Khronos glTF Blender I/O v4.1.63",
		"version":"2.0"
	},
	"scene":0,
	"scenes":[
		{
			"name":"Scene",
			"nodes":[
				0,
				1,
				2,
				3,
				4
			]
		}
	],
	"nodes":[
		{
			"mesh":0,
			"name":"path0",
			"scale":[
				35.69767761230469,
				1,
				35.69767761230469
			]
		},
		{
			"mesh":1,
			"name":"path1",
			"scale":[
				35.69767761230469,
				1,
				35.69767761230469
			]
		},
		{
			"mesh":2,
			"name":"path2",
			"scale":[
				35.69767761230469,
				1,
				35.69767761230469
			]
		},
		{
			"mesh":3,
			"name":"path3",
			"scale":[
				35.69767761230469,
				1,
				35.69767761230469
			]
		},
		{
			"mesh":4,
			"name":"path4",
			"scale":[
				35.69767761230469,
				1,
				35.69767761230469
			]
		}
	],
	"materials":[
		{
			"doubleSided":true,
			"name":"SVGMat.005",
			"pbrMetallicRoughness":{
				"baseColorFactor":[
					0.02518685907125473,
					0.045186202973127365,
					0.05612849071621895,
					1
				],
				"metallicFactor":0,
				"roughnessFactor":0.4000000059604645
			}
		},
		{
			"doubleSided":true,
			"name":"SVGMat.006",
			"pbrMetallicRoughness":{
				"baseColorFactor":[
					0.17464740574359894,
					0.40724021196365356,
					0.10461648553609848,
					1
				],
				"metallicFactor":0,
				"roughnessFactor":0.4000000059604645
			}
		},
		{
			"doubleSided":true,
			"name":"SVGMat.007",
			"pbrMetallicRoughness":{
				"baseColorFactor":[
					0.7529422044754028,
					0.4677838087081909,
					0.08228270709514618,
					1
				],
				"metallicFactor":0,
				"roughnessFactor":0.4000000059604645
			}
		},
		{
			"doubleSided":true,
			"name":"SVGMat.008",
			"pbrMetallicRoughness":{
				"baseColorFactor":[
					0.07618538290262222,
					0.06301001459360123,
					0.016807375475764275,
					1
				],
				"metallicFactor":0,
				"roughnessFactor":0.4000000059604645
			}
		},
		{
			"doubleSided":true,
			"name":"SVGMat.009",
			"pbrMetallicRoughness":{
				"baseColorFactor":[
					0.3967552185058594,
					0.37123769521713257,
					0.11953842639923096,
					1
				],
				"metallicFactor":0,
				"roughnessFactor":0.4000000059604645
			}
		}
	],
	"meshes":[
		{
			"name":"path0",
			"primitives":[
				{
					"attributes":{
						"POSITION":0,
						"NORMAL":1,
						"TEXCOORD_0":2
					},
					"indices":3,
					"material":0
				}
			]
		},
		{
			"name":"path1",
			"primitives":[
				{
					"attributes":{
						"POSITION":4,
						"NORMAL":5,
						"TEXCOORD_0":6
					},
					"indices":7,
					"material":1
				}
			]
		},
		{
			"name":"path2",
			"primitives":[
				{
					"attributes":{
						"POSITION":8,
						"NORMAL":9,
						"TEXCOORD_0":10
					},
					"indices":11,
					"material":2
				}
			]
		},
		{
			"name":"path3",
			"primitives":[
				{
					"attributes":{
						"POSITION":12,
						"NORMAL":13,
						"TEXCOORD_0":14
					},
					"indices":15,
					"material":3
				}
			]
		},
		{
			"name":"path4",
			"primitives":[
				{
					"attributes":{
						"POSITION":16,
						"NORMAL":17,
						"TEXCOORD_0":18
					},
					"indices":19,
					"material":4
				}
			]
		}
	],
	"accessors":[
		{
			"bufferView":0,
			"componentType":5126,
			"count":2982,
			"max":[
				0.08918968588113785,
				0.05000000074505806,
				-0.019308224320411682
			],
			"min":[
				0.023594260215759277,
				-0.05000000074505806,
				-0.09311556816101074
			],
			"type":"VEC3"
		},
		{
			"bufferView":1,
			"componentType":5126,
			"count":2982,
			"type":"VEC3"
		},
		{
			"bufferView":2,
			"componentType":5126,
			"count":2982,
			"type":"VEC2"
		},
		{
			"bufferView":3,
			"componentType":5123,
			"count":6468,
			"type":"SCALAR"
		},
		{
			"bufferView":4,
			"componentType":5126,
			"count":27948,
			"max":[
				0.08837602287530899,
				0.04999999701976776,
				-0.019508540630340576
			],
			"min":[
				0.025400519371032715,
				-0.04999999701976776,
				-0.09277696907520294
			],
			"type":"VEC3"
		},
		{
			"bufferView":5,
			"componentType":5126,
			"count":27948,
			"type":"VEC3"
		},
		{
			"bufferView":6,
			"componentType":5126,
			"count":27948,
			"type":"VEC2"
		},
		{
			"bufferView":7,
			"componentType":5123,
			"count":81468,
			"type":"SCALAR"
		},
		{
			"bufferView":8,
			"componentType":5126,
			"count":2614,
			"max":[
				0.08789638429880142,
				0.05000000074505806,
				-0.07918287068605423
			],
			"min":[
				0.025068553164601326,
				-0.05000000074505806,
				-0.09125594794750214
			],
			"type":"VEC3"
		},
		{
			"bufferView":9,
			"componentType":5126,
			"count":2614,
			"type":"VEC3"
		},
		{
			"bufferView":10,
			"componentType":5126,
			"count":2614,
			"type":"VEC2"
		},
		{
			"bufferView":11,
			"componentType":5123,
			"count":7320,
			"type":"SCALAR"
		},
		{
			"bufferView":12,
			"componentType":5126,
			"count":11125,
			"max":[
				0.08859045058488846,
				0,
				-0.019338710233569145
			],
			"min":[
				0.0242752768099308,
				0,
				-0.09287434071302414
			],
			"type":"VEC3"
		},
		{
			"bufferView":13,
			"componentType":5126,
			"count":11125,
			"type":"VEC3"
		},
		{
			"bufferView":14,
			"componentType":5126,
			"count":11125,
			"type":"VEC2"
		},
		{
			"bufferView":15,
			"componentType":5123,
			"count":32343,
			"type":"SCALAR"
		},
		{
			"bufferView":16,
			"componentType":5126,
			"count":2685,
			"max":[
				0.08825705945491791,
				0,
				-0.07858642935752869
			],
			"min":[
				0.024502187967300415,
				0,
				-0.09288983047008514
			],
			"type":"VEC3"
		},
		{
			"bufferView":17,
			"componentType":5126,
			"count":2685,
			"type":"VEC3"
		},
		{
			"bufferView":18,
			"componentType":5126,
			"count":2685,
			"type":"VEC2"
		},
		{
			"bufferView":19,
			"componentType":5123,
			"count":8034,
			"type":"SCALAR"
		}
	],
	"bufferViews":[
		{
			"buffer":0,
			"byteLength":35784,
			"byteOffset":0,
			"target":34962
		},
		{
			"buffer":0,
			"byteLength":35784,
			"byteOffset":35784,
			"target":34962
		},
		{
			"buffer":0,
			"byteLength":23856,
			"byteOffset":71568,
			"target":34962
		},
		{
			"buffer":0,
			"byteLength":12936,
			"byteOffset":95424,
			"target":34963
		},
		{
			"buffer":0,
			"byteLength":335376,
			"byteOffset":108360,
			"target":34962
		},
		{
			"buffer":0,
			"byteLength":335376,
			"byteOffset":443736,
			"target":34962
		},
		{
			"buffer":0,
			"byteLength":223584,
			"byteOffset":779112,
			"target":34962
		},
		{
			"buffer":0,
			"byteLength":162936,
			"byteOffset":1002696,
			"target":34963
		},
		{
			"buffer":0,
			"byteLength":31368,
			"byteOffset":1165632,
			"target":34962
		},
		{
			"buffer":0,
			"byteLength":31368,
			"byteOffset":1197000,
			"target":34962
		},
		{
			"buffer":0,
			"byteLength":20912,
			"byteOffset":1228368,
			"target":34962
		},
		{
			"buffer":0,
			"byteLength":14640,
			"byteOffset":1249280,
			"target":34963
		},
		{
			"buffer":0,
			"byteLength":133500,
			"byteOffset":1263920,
			"target":34962
		},
		{
			"buffer":0,
			"byteLength":133500,
			"byteOffset":1397420,
			"target":34962
		},
		{
			"buffer":0,
			"byteLength":89000,
			"byteOffset":1530920,
			"target":34962
		},
		{
			"buffer":0,
			"byteLength":64686,
			"byteOffset":1619920,
			"target":34963
		},
		{
			"buffer":0,
			"byteLength":32220,
			"byteOffset":1684608,
			"target":34962
		},
		{
			"buffer":0,
			"byteLength":32220,
			"byteOffset":1716828,
			"target":34962
		},
		{
			"buffer":0,
			"byteLength":21480,
			"byteOffset":1749048,
			"target":34962
		},
		{
			"buffer":0,
			"byteLength":16068,
			"byteOffset":1770528,
			"target":34963
		}
	],
	"buffers":[
		{
			"byteLength":1786596,
			"uri":"patriuz.bin"
		}
	]
}
