<?xml version="1.0" standalone="no"?>
<!DOCTYPE svg PUBLIC "-//W3C//DTD SVG 20010904//EN"
 "http://www.w3.org/TR/2001/REC-SVG-20010904/DTD/svg10.dtd">
<svg version="1.0" xmlns="http://www.w3.org/2000/svg"
 width="640.000000pt" height="640.000000pt" viewBox="0 0 640.000000 640.000000"
 preserveAspectRatio="xMidYMid meet">

<g transform="translate(0.000000,640.000000) scale(0.100000,-0.100000)"
fill="#000000" stroke="none">
<path d="M0 3200 l0 -3200 3200 0 3200 0 0 3200 0 3200 -3200 0 -3200 0 0
-3200z m1448 1958 c57 -92 203 -197 472 -338 359 -189 545 -301 670 -404 197
-163 338 -353 398 -536 37 -112 44 -161 51 -320 7 -176 14 -194 87 -230 74
-37 156 -19 206 45 21 27 24 43 29 180 10 219 47 361 136 510 127 211 363 417
678 590 39 21 86 47 105 58 19 11 112 60 205 109 325 171 469 288 504 409 8
30 9 31 10 9 2 -49 -20 -194 -41 -268 -72 -264 -180 -422 -534 -782 -242 -247
-337 -357 -379 -440 -89 -176 -67 -367 62 -538 l24 -32 -38 -16 c-98 -41 -303
-150 -349 -185 -61 -47 -108 -104 -137 -167 -19 -41 -22 -68 -25 -217 -2 -93
-1 -238 3 -322 l7 -152 46 67 c144 213 267 327 621 578 103 73 224 190 274
267 79 120 135 283 157 456 9 80 20 118 20 74 0 -27 36 -146 62 -203 32 -70
86 -151 134 -201 l45 -45 -56 -210 c-130 -491 -146 -550 -155 -571 -5 -12 -41
-37 -88 -61 -285 -142 -623 -391 -897 -659 -149 -145 -305 -331 -363 -431 -41
-70 -64 -82 -111 -58 -35 18 -51 44 -51 79 0 64 127 442 205 612 19 41 35 77
35 80 0 9 -93 58 -138 71 -65 21 -186 20 -258 -1 -72 -20 -147 -63 -140 -78
98 -219 200 -505 227 -635 15 -73 5 -103 -42 -127 -44 -23 -71 -13 -99 37
-103 188 -426 526 -725 759 -174 136 -409 287 -558 359 -40 18 -72 41 -78 54
-5 11 -43 151 -85 310 -41 160 -86 330 -99 380 l-25 90 48 50 c27 28 68 84 92
124 43 73 100 223 100 265 1 45 17 -7 24 -75 9 -90 49 -244 85 -322 64 -142
181 -274 341 -389 364 -260 477 -365 623 -579 l45 -67 7 102 c4 56 5 201 3
322 -3 213 -4 222 -29 275 -32 67 -86 130 -146 172 -46 31 -298 159 -340 172
-29 9 -29 17 3 63 76 112 108 212 102 326 -9 176 -70 267 -403 607 -248 253
-344 364 -421 490 -103 168 -165 352 -178 535 -6 75 -5 78 7 44 8 -20 23 -52
35 -71z"/>
</g>
</svg>
